<svg version="1.1" id="Layer_1" xmlns="http://www.w3.org/2000/svg" x="0px" y="0px"
	 width="100%" viewBox="0 0 739 231" enable-background="new 0 0 739 231" >
<path fill="#FBFBFC" opacity="1.000000" stroke="none" 
	d="
M315.195801,136.000107 
	C315.196228,148.159271 315.172333,159.818466 315.201447,171.477539 
	C315.264496,196.729965 294.734833,217.868713 269.390533,218.563187 
	C266.569794,218.640488 263.712921,218.666931 260.922180,218.319809 
	C254.085159,217.469391 247.868546,211.581726 248.044922,206.390640 
	C248.220535,201.222198 255.198456,194.541809 261.350891,193.891220 
	C263.977539,193.613449 266.654083,193.789810 269.307953,193.789841 
	C282.028107,193.789978 287.829620,188.682114 289.137543,176.091782 
	C289.424103,173.333313 289.179474,170.519638 289.179474,166.988434 
	C286.070374,167.341400 282.868042,166.969986 280.343689,168.105606 
	C256.023804,179.046494 224.348526,159.737625 220.261856,132.325302 
	C218.170563,118.297508 219.212189,103.801132 218.889099,89.515381 
	C218.871231,88.725418 219.310486,87.920563 219.559753,87.129829 
	C221.710114,80.308434 227.457504,75.273834 232.430984,75.848160 
	C238.360916,76.532921 243.927048,83.553291 244.002060,90.863556 
	C244.121674,102.521484 244.004410,114.181633 244.041580,125.840675 
	C244.080475,138.035889 251.809143,145.593079 263.964325,145.849319 
	C271.700378,146.012390 279.390625,145.580856 284.245544,138.835327 
	C286.995758,135.014114 289.223755,130.021164 289.545074,125.406799 
	C290.306824,114.466881 289.750214,103.437805 289.807312,92.445190 
	C289.840668,86.023537 292.255493,80.727409 297.970581,77.451775 
	C305.275360,73.265038 314.786530,80.041611 315.019318,90.035805 
	C315.372101,105.183723 315.164825,120.344673 315.195801,136.000107 
z"/>
<path fill="#FAFAFC" opacity="1.000000" stroke="none" 
	d="
M408.480438,113.487991 
	C420.101318,123.491386 427.533691,135.180649 423.896271,150.746765 
	C419.874603,167.957260 408.832062,179.985992 391.461365,182.763931 
	C376.984436,185.079086 361.930756,183.787842 347.132416,184.088211 
	C346.970978,184.091492 346.808258,184.016830 346.645630,183.980850 
	C339.969269,182.502853 334.177704,176.427307 334.439178,171.175568 
	C334.724792,165.438889 341.314636,159.221756 348.318848,159.022903 
	C360.807312,158.668320 373.312347,158.710938 385.807312,158.857361 
	C391.462372,158.923599 396.416931,157.380295 398.645386,152.160355 
	C400.963104,146.731293 401.203247,140.793060 397.707794,135.424835 
	C394.686218,130.784348 389.845764,130.506332 384.961884,130.188354 
	C376.211395,129.618637 367.169617,130.078751 358.788513,127.968254 
	C338.915222,122.963814 326.251923,101.269234 331.107269,82.454422 
	C335.471985,65.540916 352.197144,52.821640 370.803955,52.463051 
	C379.800354,52.289669 388.803345,52.487545 397.802490,52.413731 
	C403.500916,52.366989 407.698914,55.111450 410.861115,59.470856 
	C415.379242,65.699524 410.660553,74.968086 401.954559,77.025116 
	C399.879883,77.515305 397.665588,77.545929 395.514282,77.557594 
	C386.181519,77.608208 376.846405,77.457306 367.515686,77.603477 
	C358.670807,77.742050 355.077393,82.252663 355.197510,92.603157 
	C355.292297,100.771111 359.292450,104.718643 367.582672,104.777336 
	C372.082336,104.809189 376.585449,104.892967 381.081604,104.764465 
	C391.117584,104.477654 400.043060,107.611977 408.480438,113.487991 
z"/>
<path fill="#F8F8FB" opacity="1.000000" stroke="none" 
	d="
M79.285667,181.838440 
	C74.972984,178.311951 73.395523,174.006577 73.383888,168.863419 
	C73.334541,147.055328 73.019897,125.246681 73.129074,103.439873 
	C73.185638,92.143234 75.415367,81.268776 82.416962,71.951752 
	C92.397339,58.670845 105.786354,52.281155 122.364944,52.411270 
	C130.026535,52.471405 137.696732,52.228100 145.346832,52.531033 
	C148.049225,52.638042 150.937347,53.527058 153.330276,54.819115 
	C158.079849,57.383640 160.970856,62.841637 160.143433,66.506325 
	C158.897598,72.024200 152.258942,77.334984 145.610611,77.513664 
	C136.455994,77.759697 127.285019,77.411247 118.131508,77.677399 
	C114.754318,77.775604 110.979935,78.122009 108.126907,79.696472 
	C100.000740,84.180969 97.281128,93.060646 99.890228,105.411682 
	C113.477936,105.411682 127.256020,105.355804 141.032745,105.467400 
	C143.294235,105.485710 145.742081,105.817024 147.770111,106.738281 
	C152.834290,109.038712 156.428452,114.435104 155.970078,118.275558 
	C155.351654,123.456764 149.679825,129.501862 143.881653,130.025528 
	C136.941544,130.652328 129.926117,130.502136 122.942154,130.571075 
	C115.289825,130.646622 107.636162,130.588272 99.199196,130.588272 
	C99.199196,132.546860 99.198242,134.279877 99.199348,136.012894 
	C99.206551,147.339386 99.192757,158.665970 99.231468,169.992355 
	C99.248764,175.052872 97.032463,178.931488 93.050179,181.842728 
	C87.569916,185.849030 85.591522,185.837875 79.285667,181.838440 
z"/>
<path fill="#F6F6F9" opacity="1.000000" stroke="none" 
	d="
M479.977417,65.912003 
	C498.202606,58.444939 514.980164,61.629101 531.437866,70.475830 
	C534.699402,72.229050 539.155945,73.281570 542.720337,72.669777 
	C554.452698,70.656006 566.028381,67.729446 577.606812,65.166199 
	C579.023254,60.757858 577.471741,57.715595 574.284790,54.595058 
	C565.249451,45.747952 556.581055,36.526104 547.664551,27.345215 
	C551.789124,25.995041 555.725647,25.453615 560.482971,28.231234 
	C574.953979,36.680370 589.848999,44.400612 604.517151,52.516209 
	C609.316101,55.171345 614.111267,55.494331 619.391113,54.170078 
	C628.399170,51.910721 637.463623,49.800087 646.601318,48.170864 
	C650.249023,47.520493 654.154114,48.314068 657.942078,48.450333 
	C658.043884,49.193256 658.145691,49.936176 658.247559,50.679096 
	C652.850586,52.474731 647.565918,54.790951 642.038696,55.982399 
	C603.111938,64.373497 564.139771,72.554840 525.163757,80.715073 
	C522.722046,81.226273 520.124695,80.994026 517.399719,80.207108 
	C518.184998,79.770569 519.357910,79.522003 519.678833,78.860252 
	C520.462463,77.244545 521.238586,75.441917 521.257996,73.706078 
	C521.269958,72.629272 520.103027,70.859329 519.108948,70.551643 
	C498.764618,64.254585 470.066101,65.701492 455.689423,90.104370 
	C445.565308,107.288994 446.161591,125.588310 454.870453,143.029953 
	C463.515503,160.343689 478.858215,168.106537 497.893036,168.749985 
	C521.226074,169.538712 539.009644,160.168915 549.133423,138.795181 
	C555.922546,124.461769 555.609070,109.493896 549.631897,94.743256 
	C549.073547,93.365387 548.343689,92.057014 547.631470,90.588440 
	C551.192871,88.812775 551.959290,91.658928 553.146423,93.637024 
	C560.485596,105.866135 562.689575,119.442574 562.961182,133.356552 
	C563.198059,145.495193 562.812439,157.648758 562.566467,169.792984 
	C562.428223,176.619736 556.985107,183.072372 550.364746,184.230148 
	C545.401001,185.098221 542.354126,181.683640 539.509033,178.464584 
	C536.112305,174.621368 532.561401,173.876221 528.170410,176.473343 
	C515.870605,183.748276 502.797913,187.005371 488.505005,184.221771 
	C447.880493,176.309982 419.516846,128.692230 451.221893,87.123886 
	C458.655060,77.378265 468.101288,70.309235 479.977417,65.912003 
z"/>
<path fill="#FAFAFB" opacity="1.000000" stroke="none" 
	d="
M577.782471,139.000290 
	C577.446716,126.117439 577.817871,113.920280 584.242920,102.693420 
	C594.606934,84.583946 615.260986,73.867943 633.355896,77.484451 
	C655.234741,81.857224 671.534607,98.677414 673.290833,120.823288 
	C674.577271,137.043884 673.932983,153.425156 673.900940,169.734329 
	C673.896362,172.088242 672.832642,174.619934 671.678040,176.755188 
	C669.102539,181.518173 663.295410,184.751541 659.526672,183.950302 
	C654.191223,182.815979 648.975586,177.366287 648.629456,171.743378 
	C648.241272,165.437515 648.434998,159.094223 648.423523,152.767136 
	C648.405396,142.804565 648.483948,132.841568 648.418701,122.879410 
	C648.325134,108.588074 640.071045,101.470047 623.858887,101.585663 
	C611.079407,101.676788 603.203430,109.916328 603.201721,123.216927 
	C603.199829,138.375061 603.149475,153.533615 603.253601,168.691071 
	C603.286987,173.543686 601.540710,177.598877 597.939270,180.540848 
	C594.902344,183.021713 591.486694,185.357025 587.063354,183.127151 
	C581.401672,180.273071 577.926025,175.921799 577.825928,169.482590 
	C577.670593,159.490646 577.783569,149.494522 577.782471,139.000290 
z"/>
<path fill="#FBFBFC" opacity="1.000000" stroke="none" 
	d="
M176.789551,84.000053 
	C176.789886,78.674545 176.787247,73.849007 176.792694,69.023460 
	C176.794006,67.859299 176.750183,66.689003 176.849472,65.532028 
	C177.475159,58.240479 183.786331,51.517345 189.654556,51.850910 
	C195.964081,52.209564 202.162064,59.158966 202.177505,66.384415 
	C202.251480,100.976196 202.246521,135.568283 202.180344,170.160095 
	C202.168213,176.496506 195.630844,183.849609 190.103561,184.190094 
	C184.772278,184.518509 178.055267,178.257294 177.020660,171.843765 
	C176.731750,170.052734 176.799927,168.195084 176.799088,166.367950 
	C176.786575,139.078644 176.789932,111.789330 176.789551,84.000053 
z"/>
<path fill="#E91E26" opacity="1.000000" stroke="none" 
	d="
M488.209961,119.363953 
	C482.730133,120.713081 477.507172,123.049362 472.463287,122.711494 
	C468.103790,122.419487 463.348145,119.813934 459.850616,116.921539 
	C455.272430,113.135414 455.912567,111.391373 461.035095,108.512161 
	C461.895844,108.028351 462.780304,107.586685 463.924133,106.982841 
	C463.532501,105.869019 463.209991,104.812309 462.794647,103.793442 
	C460.205231,97.440872 461.432526,95.405121 468.388367,95.125984 
	C473.756012,94.910591 478.659576,96.501686 482.459290,100.400856 
	C485.464142,103.484375 488.384644,106.722603 490.859772,110.232582 
	C494.450836,115.325096 494.077332,116.167099 488.209961,119.363953 
M475.916260,110.573143 
	C476.659363,115.394249 477.220276,115.566696 482.838226,112.720032 
	C480.994110,111.005043 480.273346,106.638451 475.916260,110.573143 
z"/>
<path fill="#EA1D26" opacity="1.000000" stroke="none" 
	d="
M513.436279,125.416275 
	C517.734863,127.635544 522.108215,129.161194 525.482727,131.912201 
	C530.603210,136.086563 532.063110,141.983276 530.592957,148.873138 
	C527.614746,148.873138 524.716980,148.873138 521.833740,148.873138 
	C521.525940,149.522995 521.229126,149.928619 521.137390,150.376266 
	C519.357849,159.059494 516.622925,160.058685 509.733124,154.523071 
	C503.547424,149.553085 499.114044,133.342758 502.453735,126.546906 
	C503.095642,125.240738 505.542511,124.335655 507.247437,124.167938 
	C509.131805,123.982582 511.120514,124.857948 513.436279,125.416275 
M515.457275,135.600815 
	C513.789978,134.926987 512.122681,134.253143 510.455414,133.579315 
	C510.082092,134.049286 509.708801,134.519257 509.335480,134.989227 
	C510.121429,136.336685 510.907410,137.684128 511.693329,139.031586 
	C512.976807,138.150146 514.260315,137.268723 515.457275,135.600815 
z"/>
<path fill="#E91D26" opacity="1.000000" stroke="none" 
	d="
M468.731140,148.716248 
	C466.009674,142.970703 468.350739,134.732956 474.661774,130.925385 
	C480.761810,127.245125 487.671265,124.906502 495.063171,121.604172 
	C497.854797,132.832108 498.813385,142.218979 492.542328,150.876770 
	C491.231079,152.687073 489.215240,154.148376 487.245758,155.290512 
	C481.173431,158.811874 479.382507,157.904587 478.051270,151.012009 
	C477.931000,150.389297 477.785858,149.771393 477.597260,148.895966 
	C474.673676,148.895966 471.897827,148.895966 468.731140,148.716248 
M489.587189,132.591232 
	C488.480774,132.847977 487.103546,132.785477 486.333496,133.438736 
	C485.263855,134.346237 484.649597,135.790573 483.840393,137.005081 
	C484.946259,137.734314 486.531830,139.314163 487.058807,139.016983 
	C488.180695,138.384308 488.925140,136.852127 489.497009,135.545364 
	C489.976898,134.448639 489.992828,133.148880 490.012451,131.982620 
	C490.012451,131.982620 490.202606,131.848724 490.202606,131.848724 
	C490.202606,131.848724 490.115265,132.009155 489.587189,132.591232 
z"/>
<path fill="#EB1E26" opacity="1.000000" stroke="none" 
	d="
M534.118225,96.504501 
	C542.207458,99.279793 535.489563,103.185562 535.687744,107.070953 
	C536.293335,107.459488 537.360718,108.168015 538.450867,108.839607 
	C543.996643,112.256111 544.123230,114.194702 539.075867,118.525978 
	C533.696838,123.141884 527.443420,124.067978 520.782166,122.536606 
	C516.912964,121.647095 512.990479,120.616165 509.435089,118.926849 
	C508.102203,118.293541 506.757355,115.393082 507.093567,113.904831 
	C509.601593,102.803658 522.445618,94.511681 534.118225,96.504501 
M523.040527,110.005997 
	C519.188721,106.388412 518.283997,110.919052 516.293030,112.446487 
	C522.024048,115.516304 522.370667,115.429092 523.040527,110.005997 
z"/>
<path fill="#EA1E27" opacity="1.000000" stroke="none" 
	d="
M498.749481,111.117599 
	C495.038757,106.117317 490.857880,101.390305 487.748535,96.040512 
	C484.588409,90.603340 485.769135,84.769829 488.994415,79.521873 
	C491.834900,74.899925 492.868042,74.845192 496.934357,78.511833 
	C497.792389,79.285530 498.619019,80.094025 499.504303,80.928154 
	C499.966553,80.682014 500.393402,80.463936 500.811676,80.230431 
	C503.295044,78.844055 507.152802,75.725014 507.995331,76.395752 
	C510.343018,78.264664 512.367493,81.551094 512.865417,84.552254 
	C514.755066,95.940628 508.420197,104.032852 500.558411,111.110756 
	C500.705200,106.182472 498.652252,101.221710 502.312286,97.033981 
	C502.666046,96.629234 501.959778,94.496429 501.272888,94.174538 
	C500.280396,93.709457 498.629059,93.792282 497.692627,94.358665 
	C497.037140,94.755096 496.526367,96.833801 496.943176,97.333397 
	C500.509033,101.607346 498.357361,106.514931 498.749481,111.117599 
z"/>
<path fill="#FDEFF0" opacity="1.000000" stroke="none" 
	d="
M498.829529,111.373329 
	C498.357361,106.514931 500.509033,101.607346 496.943176,97.333397 
	C496.526367,96.833801 497.037140,94.755096 497.692627,94.358665 
	C498.629059,93.792282 500.280396,93.709457 501.272888,94.174538 
	C501.959778,94.496429 502.666046,96.629234 502.312286,97.033981 
	C498.652252,101.221710 500.705200,106.182472 500.248108,111.285316 
	C500.025848,112.087631 499.751160,112.375160 499.476471,112.662689 
	C499.287476,112.318146 499.098511,111.973602 498.829529,111.373329 
z"/>
<path fill="#FDECEC" opacity="1.000000" stroke="none" 
	d="
M476.097900,110.223907 
	C480.273346,106.638451 480.994110,111.005043 482.838226,112.720032 
	C477.220276,115.566696 476.659363,115.394249 476.097900,110.223907 
z"/>
<path fill="#FEF1F1" opacity="1.000000" stroke="none" 
	d="
M515.500488,135.994049 
	C514.260315,137.268723 512.976807,138.150146 511.693359,139.031586 
	C510.907410,137.684128 510.121429,136.336685 509.335480,134.989227 
	C509.708801,134.519257 510.082092,134.049286 510.455414,133.579315 
	C512.122681,134.253143 513.789978,134.926987 515.500488,135.994049 
z"/>
<path fill="#FDE9EA" opacity="1.000000" stroke="none" 
	d="
M490.214203,131.939011 
	C489.992828,133.148880 489.976898,134.448639 489.497009,135.545364 
	C488.925140,136.852127 488.180695,138.384308 487.058807,139.016983 
	C486.531830,139.314163 484.946259,137.734314 483.840393,137.005096 
	C484.649597,135.790573 485.263855,134.346237 486.333496,133.438736 
	C487.103546,132.785477 488.480774,132.847977 489.875671,132.282227 
	C490.164124,131.973236 490.214203,131.939011 490.214203,131.939011 
z"/>
<path fill="#FDE9EA" opacity="1.000000" stroke="none" 
	d="
M490.139709,131.991196 
	C490.115265,132.009155 490.202606,131.848724 490.202606,131.848724 
	C490.202606,131.848724 490.012451,131.982620 490.113342,131.960815 
	C490.214203,131.939011 490.164124,131.973236 490.139709,131.991196 
z"/>
<path fill="#FDEFEF" opacity="1.000000" stroke="none" 
	d="
M523.202026,110.336807 
	C522.370667,115.429092 522.024048,115.516304 516.295227,112.452576 
	C518.283997,110.919052 519.188721,106.388412 523.202026,110.336807 
z"/>
</svg>